<?xml version="1.0" encoding="utf-8"?>
<!-- Generator: Adobe Illustrator 25.3.1, SVG Export Plug-In . SVG Version: 6.00 Build 0)  -->
<svg version="1.1" id="Layer_1" xmlns="http://www.w3.org/2000/svg" xmlns:xlink="http://www.w3.org/1999/xlink" x="0px" y="0px"
	 viewBox="0 0 164.7 164.6" style="enable-background:new 0 0 164.7 164.6;" xml:space="preserve">
<style type="text/css">
	.st0{fill:#FF7B10;}
	.st1{fill:#FFFFFF;}
</style>
<desc>Created with Sketch.</desc>
<g id="Main-Logo" transform="translate(-130.000000, -206.000000)">
	<g id="Logo-_x2F_-orange" transform="translate(130.000000, 206.000000)">
		<g id="Symbol">
			<path id="Fill-19" class="st0" d="M164.7,82.3c0,45.5-36.9,82.3-82.3,82.3S0,127.8,0,82.3S36.9,0,82.3,0S164.7,36.9,164.7,82.3"
				/>
			<path id="Fill-21" class="st1" d="M86,63.8l-3.7,9.1l-3.7-9.1c0-0.1-0.1-0.3-0.1-0.3c-0.2-0.4-0.2-0.9-0.2-1.4c0-2.2,1.8-4,4-4
				s4,1.8,4,4c0,0.5-0.1,0.9-0.2,1.4C86.1,63.5,86.1,63.7,86,63.8z M115.9,58.1l-19.8,48.7l-9.6-23.5l6.7-16.6c0.6-1.5,1-3.1,1-4.7
				c0-6.6-5.3-11.9-11.9-11.9S70.4,55.4,70.4,62c0,1.6,0.3,3.2,0.9,4.6l6.8,16.7l-9.6,23.5L48.7,58.1h-8.4l22.6,55.4
				c0.7,1.8,2.4,2.9,4.3,2.9h2.7c1.8,0,3.5-1.1,4.3-2.9l8.1-20l8.2,20.1c0.7,1.7,2.4,2.8,4.2,2.8h2.7c1.9,0,3.6-1.1,4.3-2.9
				L124.3,58L115.9,58.1L115.9,58.1z"/>
		</g>
	</g>
</g>
</svg>
